<?xml version="1.0" standalone="no"?>
<!DOCTYPE svg PUBLIC "-//W3C//DTD SVG 20010904//EN"
 "http://www.w3.org/TR/2001/REC-SVG-20010904/DTD/svg10.dtd">
<svg version="1.0" xmlns="http://www.w3.org/2000/svg"
 width="1171.000000pt" height="1280.000000pt" viewBox="0 0 1171.000000 1280.000000"
 preserveAspectRatio="xMidYMid meet">
<metadata>
Created by potrace 1.15, written by Peter Selinger 2001-2017
</metadata>
<g transform="translate(0.000000,1280.000000) scale(0.100000,-0.100000)"
fill="#000000" stroke="none">
<path d="M7144 12785 c-554 -81 -997 -487 -1134 -1040 l-9 -40 -223 -2 -223
-3 -25 83 c-27 90 -104 251 -163 339 -191 285 -515 503 -851 572 -232 48 -499
33 -716 -41 -390 -133 -715 -450 -845 -823 -14 -41 -30 -84 -35 -95 -45 -98
-50 -128 -50 -303 0 -181 15 -318 49 -434 l19 -68 -86 -52 c-607 -363 -1186
-877 -1627 -1443 -551 -707 -931 -1540 -1110 -2432 -25 -122 -49 -232 -54
-245 -40 -107 -66 -542 -58 -988 9 -496 52 -842 159 -1290 422 -1766 1666
-3251 3342 -3989 566 -250 1134 -397 1806 -468 234 -24 856 -24 1090 0 778 82
1420 267 2081 598 743 371 1400 903 1941 1569 651 803 1093 1823 1232 2845 46
338 51 425 50 920 -1 518 -13 707 -54 821 -11 32 -38 146 -60 254 -157 772
-471 1505 -924 2157 -204 294 -399 527 -671 798 -373 374 -760 674 -1190 923
-77 45 -146 85 -154 90 -12 7 -11 21 7 92 32 126 40 196 46 391 6 168 5 179
-18 245 -122 345 -214 505 -393 681 -305 299 -729 439 -1149 378z"/>
</g>
</svg>
